<svg xmlns="http://www.w3.org/2000/svg" fill="none" viewBox="24 53.5 851.95 180">
<g id="Frame 1">
<g id="feather-alt" clip-path="url(#clip0_5_5)">
<path id="Vector" d="M204 53.5C185.796 54.7516 57.9042 66.9297 48.964 154.613C47.8777 163.986 47.2624 173.4 46.8581 182.822L109.742 120.002C111.939 117.804 115.508 117.804 117.705 120.002C119.902 122.199 119.902 125.76 117.705 127.957L26.4746 219.096C23.1769 222.391 23.1769 227.734 26.4746 231.029C29.7722 234.323 35.1195 234.323 38.4206 231.029L58.5054 210.965C73.3027 210.916 88.0894 210.075 102.788 208.377C121.59 206.465 136.897 199.071 149.398 188.5H113.908L165.514 171.316C169.469 166.081 173.027 160.519 176.219 154.75H147.693L185.149 136.043C199.883 100.209 203.363 62.732 204 53.5Z" fill="#DA9500"/>
</g>
<path id="Notezen" d="M355.008 93.816C356.284 84.884 358.836 78.446 362.664 74.502C366.492 70.558 371.538 68.586 377.802 68.586C384.066 68.586 388.648 70.442 391.548 74.154C394.564 77.75 396.072 81.404 396.072 85.116C396.072 86.276 395.956 87.436 395.724 88.596C393.172 101.472 384.646 111.506 370.146 118.698L357.966 201H328.734L308.028 109.302L298.458 177.162C297.182 185.746 294.514 192.068 290.454 196.128C286.51 200.188 281.87 202.218 276.534 202.218C271.198 202.218 266.732 200.652 263.136 197.52C259.656 194.388 257.51 189.922 256.698 184.122C256.582 183.194 256.524 182.266 256.524 181.338C256.524 169.854 265.166 159.994 282.45 151.758L289.932 95.73C292.832 94.454 295.326 93.816 297.414 93.816C299.618 93.816 301.474 93.99 302.982 94.338C300.314 90.162 296.08 88.074 290.28 88.074C284.48 88.074 279.376 91.09 274.968 97.122L271.662 82.158C273.866 79.142 277.694 76.126 283.146 73.11C288.714 69.978 294.804 68.412 301.416 68.412C308.144 68.412 313.828 70.442 318.468 74.502C323.108 78.446 326.472 85.116 328.56 94.512L344.916 163.416L355.008 93.816ZM372.408 103.734C379.6 98.63 383.196 93.874 383.196 89.466C383.196 88.654 382.906 87.726 382.326 86.682C381.746 85.638 380.876 85.116 379.716 85.116C377.512 85.116 376.004 86.334 375.192 88.77C374.032 92.134 373.104 97.122 372.408 103.734ZM280.71 166.2C272.706 170.724 268.704 175.132 268.704 179.424C268.704 183.716 270.27 185.862 273.402 185.862C275.49 185.862 276.998 184.528 277.926 181.86C278.854 179.076 279.724 174.146 280.536 167.07L280.71 166.2ZM430.432 117.306C441.104 117.306 449.978 120.728 457.054 127.572C464.246 134.416 467.842 142.768 467.842 152.628C467.842 167.592 463.434 179.598 454.618 188.646C445.918 197.578 435.362 202.044 422.95 202.044C410.538 202.044 400.678 198.506 393.37 191.43C386.178 184.354 382.582 175.596 382.582 165.156C382.582 150.54 387.048 138.94 395.98 130.356C405.028 121.656 416.512 117.306 430.432 117.306ZM426.952 131.4C421.5 131.4 416.918 134.532 413.206 140.796C409.494 147.06 407.464 154.948 407.116 164.46C407.116 171.188 408.45 176.756 411.118 181.164C413.902 185.572 418.078 187.776 423.646 187.776C429.214 187.776 433.854 184.702 437.566 178.554C441.394 172.406 443.308 165.388 443.308 157.5C443.308 149.612 441.974 143.348 439.306 138.708C436.638 133.836 432.52 131.4 426.952 131.4ZM514.566 79.896C514.566 80.592 513 93.062 509.868 117.306H535.446V130.704H508.128L507.606 135.054C521.178 146.422 527.964 158.834 527.964 172.29C527.964 182.846 525.238 190.444 519.786 195.084C514.45 199.724 508.012 202.044 500.472 202.044C492.932 202.044 487.422 200.072 483.942 196.128C480.462 192.068 478.722 187.196 478.722 181.512C478.722 180.236 478.838 178.844 479.07 177.336L484.464 131.052L483.768 130.704H469.674C469.558 129.544 469.5 127.688 469.5 125.136C469.5 122.468 470.022 119.858 471.066 117.306H486.03L491.598 69.978C494.034 69.05 497.282 68.586 501.342 68.586C510.158 68.586 514.566 72.356 514.566 79.896ZM516.306 172.116C516.306 164.112 512.826 156.224 505.866 148.452C503.778 165.736 502.734 175.712 502.734 178.38C502.734 183.6 504.416 186.21 507.78 186.21C510.216 186.21 512.246 185.108 513.87 182.904C515.494 180.584 516.306 176.988 516.306 172.116ZM567.419 162.024C574.611 160.516 579.947 157.616 583.427 153.324C587.023 149.032 588.821 144.914 588.821 140.97C588.821 136.91 587.719 134.184 585.515 132.792C583.427 131.284 581.107 130.53 578.555 130.53C573.103 130.53 568.289 133.604 564.113 139.752C560.053 145.784 558.023 153.034 558.023 161.502C558.023 169.854 559.995 176.118 563.939 180.294C567.999 184.354 572.987 186.384 578.903 186.384C587.603 186.384 595.955 183.368 603.959 177.336C611.963 171.304 618.459 163.416 623.447 153.672C625.999 156.108 628.319 159.124 630.407 162.72C626.579 171.42 619.793 179.946 610.049 188.298C605.177 192.358 599.377 195.664 592.649 198.216C586.037 200.768 579.193 202.044 572.117 202.044C560.517 202.044 551.353 198.506 544.625 191.43C537.433 183.774 533.837 173.972 533.837 162.024C533.837 150.076 538.303 139.636 547.235 130.704C556.283 121.772 567.071 117.306 579.599 117.306C588.531 117.306 595.781 119.278 601.349 123.222C606.917 127.05 609.759 132.27 609.875 138.882C609.875 147.814 606.279 155.064 599.087 160.632C592.011 166.2 582.267 170.086 569.855 172.29L567.419 162.024ZM664.479 202.566L616.107 201.522C614.599 201.522 613.845 199.492 613.845 195.432C613.845 191.256 614.715 188.008 616.455 185.688C618.195 181.048 623.009 174.262 630.897 165.33C633.449 162.43 638.205 157.21 645.165 149.67C652.125 142.13 656.707 136.968 658.911 134.184L649.689 133.662C647.949 137.838 645.397 141.26 642.033 143.928C638.785 146.48 635.131 147.756 631.071 147.756C626.431 147.756 622.661 146.422 619.761 143.754C616.861 140.97 615.411 137.142 615.411 132.27C615.411 127.398 617.093 123.512 620.457 120.612C623.821 117.712 628.461 116.262 634.377 116.262L682.749 117.306C684.257 117.306 685.011 119.278 685.011 123.222C685.011 127.282 684.257 130.414 682.749 132.618C681.357 135.17 679.327 137.896 676.659 140.796C674.107 143.58 670.337 147.35 665.349 152.106C660.361 156.746 656.881 160.052 654.909 162.024C647.137 169.796 641.337 177.278 637.509 184.47L649.167 185.166C650.907 180.99 653.401 177.626 656.649 175.074C660.013 172.406 663.725 171.072 667.785 171.072C672.425 171.072 676.195 172.464 679.095 175.248C681.995 177.916 683.445 181.686 683.445 186.558C683.445 191.43 681.763 195.316 678.399 198.216C675.035 201.116 670.395 202.566 664.479 202.566ZM632.985 132.444C628.925 132.444 626.895 133.778 626.895 136.446C626.895 139.114 628.403 140.448 631.419 140.448C635.943 140.448 639.539 138.012 642.207 133.14L635.073 132.618C634.377 132.502 633.681 132.444 632.985 132.444ZM665.871 186.384C669.931 186.384 671.961 185.05 671.961 182.382C671.961 179.714 670.453 178.38 667.437 178.38C662.913 178.38 659.317 180.816 656.649 185.688L663.783 186.21C664.479 186.326 665.175 186.384 665.871 186.384ZM724.426 162.024C731.618 160.516 736.954 157.616 740.434 153.324C744.03 149.032 745.828 144.914 745.828 140.97C745.828 136.91 744.726 134.184 742.522 132.792C740.434 131.284 738.114 130.53 735.562 130.53C730.11 130.53 725.296 133.604 721.12 139.752C717.06 145.784 715.03 153.034 715.03 161.502C715.03 169.854 717.002 176.118 720.946 180.294C725.006 184.354 729.994 186.384 735.91 186.384C744.61 186.384 752.962 183.368 760.966 177.336C768.97 171.304 775.466 163.416 780.454 153.672C783.006 156.108 785.326 159.124 787.414 162.72C783.586 171.42 776.8 179.946 767.056 188.298C762.184 192.358 756.384 195.664 749.656 198.216C743.044 200.768 736.2 202.044 729.124 202.044C717.524 202.044 708.36 198.506 701.632 191.43C694.44 183.774 690.844 173.972 690.844 162.024C690.844 150.076 695.31 139.636 704.242 130.704C713.29 121.772 724.078 117.306 736.606 117.306C745.538 117.306 752.788 119.278 758.356 123.222C763.924 127.05 766.766 132.27 766.882 138.882C766.882 147.814 763.286 155.064 756.094 160.632C749.018 166.2 739.274 170.086 726.862 172.29L724.426 162.024ZM822.705 181.512L826.881 142.71C826.881 139.578 826.069 136.968 824.445 134.88C822.821 132.792 820.095 131.748 816.267 131.748C812.555 131.748 809.365 133.43 806.697 136.794C804.145 140.042 802.521 144.16 801.825 149.148C797.649 180.932 795.445 198.216 795.213 201H771.723L781.293 119.046C786.165 117.77 789.877 117.132 792.429 117.132C800.201 117.132 804.261 119.974 804.609 125.658C810.293 120.09 817.079 117.306 824.967 117.306C832.971 117.306 839.235 119.278 843.759 123.222C848.283 127.166 850.545 132.154 850.545 138.186C850.545 139.81 850.197 142.884 849.501 147.408C846.833 165.04 845.499 175.306 845.499 178.206C845.499 183.542 847.297 186.21 850.893 186.21C858.781 186.21 864.755 177.974 868.815 161.502C872.759 165.678 875.137 168.984 875.949 171.42C869.801 191.836 859.129 202.044 843.933 202.044C836.741 202.044 831.405 199.84 827.925 195.432C824.445 191.024 822.705 186.384 822.705 181.512Z" fill="#90F0FF"/>
</g>
<defs>
<clipPath id="clip0_5_5">
<rect width="180" height="180" fill="white" transform="translate(24 53.5)"/>
</clipPath>
</defs>
</svg>